<svg xmlns="http://www.w3.org/2000/svg" viewBox="0 0 16 16" width="16px" height="16px">
<path fill="#808080" d="m 2,1 v 4 h 4 v 10 h 4 V 5 h 4 V 1 Z m 1,1 h 10 v 1.6582034 l -0.5,-0.5 V 2.5 H 12 V 3 H 8 V 13 H 7.5 v 0.5 h 0.646484 l 0.5,0.5 H 7 V 4 L 6,3 H 3.5 v 0.5 h 2.292969 l 0.5,0.5 H 3 Z m 5.853516,1.511719 h 3.292968 L 12.646484,4 H 9.353516 Z M 8.5,3.8769534 9,4.3652346 V 13.658203 L 8.5,13.13086 Z" />
<path fill="#ed6b21" d="M 1,12 C 0.5,12 0,12 0,12.5 0,13 0.5,13 1,13 h 3.5 c 0.5,0 1,0 1,-0.5 C 5.5,12 5,12 4.5,12 Z" />
</svg>
