<svg xmlns="http://www.w3.org/2000/svg" viewBox="0 0 16 16" width="16px" height="16px">
<path fill="#808080" d="M 2,1 V 4 H 6.5 V 14.998047 L 9.5,15 V 4 H 14 V 1 Z m 0.500047,0.5 h 2.06836 L 4.359422,2.2460937 3.191453,2.5585937 2.500047,1.8828125 Z m 3.107422,0 h 1.632813 l 0.394531,0.3867187 -0.3125,1.1191406 -1.166016,0.3125 -0.830078,-0.8125 z m 5.251953,0 H 12.50786 L 12.4727,1.625 11.306685,1.9375 Z M 13.5,1.6464843 V 2 L 13.43754,1.8847657 Z m -3.730421,0.1855469 0.830078,0.8125 L 10.386766,3.5 H 9 V 3.9669613 L 8.287152,3.2636716 8.599652,2.1445309 Z M 12.730516,2.5917969 13.5,3.3496093 V 3.5000001 H 11.423875 L 11.5645,2.904297 Z M 4.619188,3.2109375 5,3.5 H 3.5 Z m 2.960937,0.7597656 0.830078,0.8125 -0.3125,1.1191406 L 7,6.1957387 7.0002733,4.1260205 Z M 8.357469,6.8691406 9,7.5 V 8.3470521 L 8.875047,8.8007811 7.709032,9.1132811 7,8.4263586 v -0.574671 l 0.191453,-0.670047 z m 0.641742,5.0046944 -0.514789,0.137887 -0.830078,-0.8125 0.3125,-1.119141 1.033945,-0.2773181 z M 7,11.963263 7.779344,12.71875 7.466844,13.837891 7,13.960601 Z M 9,14.5 H 8.841844 L 8.431688,14.095703 8.744188,12.976562 9,12.908257 Z" />
<circle fill="#ed6b21" cx="3.5" cy="12.5" r="2.5" />
</svg>
