<svg xmlns="http://www.w3.org/2000/svg" viewBox="0 0 16 16" width="16px" height="16px">
<path fill="none" stroke="#808080" stroke-width="0.8" d="M 1,4 v 8 h 8 v -8 h -8 m 0,4 v -4 l 2.8,-2.8 h 8 v 8 l -2.8,2.8 h -8 M 9,12 v -8 l 2.8,-2.8" />
<path fill="none" stroke="#ed6b21" stroke-width="0.8" d="M 5,12 l -2,2 h 8 l 4,-4 h -4 l -2,2 z" />
<path fill="none" stroke="#ed6b21" stroke-width="0.4" d="
M 4,13 l 1,1 h 1 l -1.5,-1.5
M 5,12 l 2,2 h 1 l -2,-2 h 1 l 2,2 h 1 l -2,-2 h 1 l 2,2
l 0.5,-0.5 l -2,-2 l 0.5,-0.5 l 2,2 l 0.5,-0.5 l -2,-2 l 0.5,-0.5 l 2,2
l 0.5,-0.5 l -1.5,-1.5 h 1 l 1,1" />
<path fill="#ffffff" d="M 5.5,4.55 c -1.9,0 -2,0 -2,1.9 0,1 1,1 2,1 h 7 c 1,0 2,0 2,-1.9 0,-1 -1,-1 -2,-1 z" />
<path fill="#ed6b21" d="M 6,5 c -1,0 -2,0 -2,1 0,1 1,1 2,1 h 6 c 1,0 2,0 2,-1 0,-1 -1,-1 -2,-1 z" />
</svg>