<svg xmlns="http://www.w3.org/2000/svg" viewBox="0 0 16 16" width="16px" height="16px">
<path fill="#808080" d="M 15,4 C 15,2 14,1 12,1 H 5 C 3,1 2,2 2,4 v 6 H 3 V 4 C 3,2.7 3.7,2 5,2 h 7 c 1.3,0 2,0.7 2,2 v 7 c 0,1.3 -0.7,2 -2,2 H 6 v 1 h 6 c 2,0 3,-1 3,-3 z" />
<path fill="#ed6b21" d="M 2.5,11 A 2.5,2.5 0 0 0 0,13.5 2.5,2.5 0 0 0 2.5,16 2.5,2.5 0 0 0 5,13.5 2.5,2.5 0 0 0 2.5,11 Z m 0.144531,1 A 1.5,1.5 0 0 1 4,13.355469 Z m -0.632812,0 1.90625,2 a 1.5,1.5 0 0 1 -0.628906,0.773438 l -2,-2 a 1.5,1.5 0 0 1 0.7,-0.7 z m -1,1.2 1.78,1.779999 a 1.5,1.5 0 0 1 -0.28125,0 1.5,1.5 0 0 1 -1.5,-1.5 1.5,1.5 0 0 1 0,-0.28125 z" />
</svg>
