<svg xmlns="http://www.w3.org/2000/svg" viewBox="0 0 16 16" width="16px" height="16px">
<path fill="#808080" d="m 2,0 v 4 l 1,1 h 4 v 9.285156 L 6.5,13.770689 V 5.5 H 6 V 14 l 1,1 h 4 V 5 h 4 V 1 L 14,0 Z M 2.841797,0.5 H 13.783911 L 14.289061,1 H 3.351563 Z M 2.5,0.859375 3,1.363281 v 2.933594 l -0.5,-0.5 z M 4,2 H 14 V 4 H 10 V 14 H 8 V 4 H 4 Z" />
<path fill="#ed6b21" d="M 2.5,10 C 2,10 2,10.5 2,11 v 1 L 1,12 C 0.5,12 0,12 0,12.5 0,13 0.5,13 1,13 l 1,0 v 1 C 2,14.5 2,15 2.5,15 3,15 3,14.5 3,14 V 13 H 4 C 4.5,13 5,13 5,12.5 5,12 4.5,12 4,12 H 3 V 11 C 3,10.5 3,10 2.5,10 Z" />
</svg>
