<svg xmlns="http://www.w3.org/2000/svg" viewBox="0 0 16 16" width="16px" height="16px">
<path fill="#ffffff" stroke="#808080" stroke-width="1.5" d="
M 1,2.5
v 8
c 0,1.5 6,1.5 6,0
v -8
c 0,-1.5 -6,-1.5 -6,0
c 0,1.5 6,1.5 6,0
" />
<path fill="#ffffff" stroke="#808080" stroke-width="1.5" d="
M 5,4
v 8
c 0,1.5 6,1.5 6,0
v -8
c 0,-1.5 -6,-1.5 -6,0
c 0,1.5 6,1.5 6,0
" />
<path fill="#ffffff" stroke="#ffffff" stroke-width="2" d="
M 9,5.5
v 8
c 0,1.5 6,1.5 6,0
v -8
c 0,-1.5 -6,-1.5 -6,0
c 0,1.5 6,1.5 6,0
" />
<path fill="none" stroke="#808080" stroke-width="1.5" d="
M 9,5.5
v 8
c 0,1.5 6,1.5 6,0
v -8
c 0,-1.5 -6,-1.5 -6,0
c 0,1.5 6,1.5 6,0
" />
<path fill="none" stroke="#ed6b21" stroke-width="1.5" d="
M 9,5.5 v1.019m0,1.962v2.038m0,1.962v1.019c0,0.268043,0.1915924,0.488188,0.5063039,0.660435m1.6204211,0.421085c0.567004,0.05798,1.179599,0.05797,1.746601,-0.000005m1.620415,-0.421104c0.315,-0.172,0.506,-0.392,0.506,-0.66v-1.019m0,-1.962v-2.038m0,-1.962v-1.019c0,-0.268,-0.191,-0.489,-0.506,-0.661m-1.62,-0.421c-0.567004,-0.057975,-1.179599,-0.057974,-1.746601,0.0000052m-1.621,0.421c-0.315,0.172,-0.506,0.393,-0.506,0.661c0,0.268,0.191,0.488,0.506,0.66m1.6204211,0.4210844c0.567004,0.057975,1.179599,0.057974,1.746601,-0.0000052m1.621,-0.421c0.314,-0.172,0.506,-0.392,0.506,-0.66
" />
</svg>