<?xml version="1.0" encoding="UTF-8"?>
<!-- Generator: Adobe Illustrator 25.4.1, SVG Export Plug-In . SVG Version: 6.00 Build 0)  -->
<svg enable-background="new 0 0 96 96" version="1.1" viewBox="0 0 96 96" xml:space="preserve" xmlns="http://www.w3.org/2000/svg">
<path id="path6993" 
	  d="m22.3 7.7c-1.8 0-6.1 4.1-6.1 4.1v14.7l8.8 20.4h7l8.8-20.4v-18.8s-4.3 4.1-6.1 4.1c-1.9 0-10.7-4.1-12.4-4.1z"
      style="fill:#FFFFFF;stroke:#FFFFFF;stroke-width:4;stroke-linecap:round;stroke-linejoin:round;stroke-miterlimit:10" />
	  
<path id="path6994"
	d="m57.3 64.4v0.9c0 1.8-1.6 3.2-3.4 3.2h-15s-2.6-0.1-2.6 2.5c0 2.9 2.6 2.5 2.6 2.5h36.9"
    style="fill:none;stroke:#FFFFFF;stroke-width:6;stroke-linecap:round;stroke-linejoin:round;stroke-miterlimit:10" />
	
<rect id="path6995" x="11.7" y="81.8" width="73.6" height="9.6" style="fill:#C1BE63" />
<path id="path6996"
	d="m49.6 16.6c-2.2 0-7.7 4.6-7.7 4.6v16.4l11 22.8h8.8l11-22.8v-21s-5.4 4.6-7.7 4.6c-2.3-0.1-13.2-4.6-15.4-4.6z"
    style="fill:#ED6B21;stroke:#ED6B21;stroke-width:4;stroke-linecap:round;stroke-linejoin:round;stroke-miterlimit:10" />

	<path d="m61 23.8c0.6 0 0.7 0.4 0.7 0.9v28c0 0.5-0.3 0.9-0.8 0.9h-5.6c-0.7 0-0.8-0.4-0.8-0.8v-22.6l-2.5 1.3c-0.1 0.1-0.2 0.1-0.3 0.1-0.3 0-0.4-0.3-0.4-0.6v-4.4c0-0.5 0.1-0.9 0.5-1.1l2.4-1.2c0.6-0.3 1.2-0.5 1.9-0.5h4.9z"/>
	<path d="m21.4 19.6c-0.4 0-0.4-0.5-0.4-0.7 0-4 2.7-7.3 6.9-7.3 3.8 0 7.1 2.6 7.1 6.5v1.1c0 2.2-1.1 3.8-1.8 4.6l-5.6 6.3h6.7c0.5 0 0.8 0.2 0.8 0.8v3.5c0 0.5-0.2 0.7-0.7 0.7h-12.6c-0.3 0-0.8-0.1-0.8-0.6v-3.2c0-0.5 0-0.7 0.1-0.8l7.4-9.1c0.3-0.4 0.9-1.1 0.9-2.2v-1c0-0.9-0.8-1.4-1.6-1.4-1.2 0-1.6 1.1-1.6 2.3 0 0.5-0.2 0.6-0.5 0.6l-4.3-0.1z"/>

</svg>
