<?xml version="1.0" encoding="UTF-8" standalone="no"?>
<!-- Svg Vector Icons : http://www.onlinewebfonts.com/icon -->

<svg
   version="1.1"
   x="0px"
   y="0px"
   viewBox="0 0 1000 1000"
   enable-background="new 0 0 1000 1000"
   xml:space="preserve"
   id="svg3610"
   sodipodi:docname="legend_wipe.svg"
   inkscape:version="1.1 (c68e22c387, 2021-05-23)"
   xmlns:inkscape="http://www.inkscape.org/namespaces/inkscape"
   xmlns:sodipodi="http://sodipodi.sourceforge.net/DTD/sodipodi-0.dtd"
   xmlns="http://www.w3.org/2000/svg"
   xmlns:svg="http://www.w3.org/2000/svg"><defs
   id="defs3614" /><sodipodi:namedview
   id="namedview3612"
   pagecolor="#505050"
   bordercolor="#eeeeee"
   borderopacity="1"
   inkscape:pageshadow="0"
   inkscape:pageopacity="0"
   inkscape:pagecheckerboard="0"
   showgrid="false"
   inkscape:zoom="0.812"
   inkscape:cx="499.38424"
   inkscape:cy="500.61576"
   inkscape:window-width="1920"
   inkscape:window-height="1001"
   inkscape:window-x="-9"
   inkscape:window-y="-9"
   inkscape:window-maximized="1"
   inkscape:current-layer="g3606" />
<metadata
   id="metadata3600"> Svg Vector Icons : http://www.onlinewebfonts.com/icon </metadata>
<g
   id="g3608"><g
     transform="translate(0.000000,511.000000) scale(0.100000,-0.100000)"
     id="g3606"><path
       d="M5109.5,4754.8c-284.8-35.6-446.9-92.9-899.8-312.5c-504.3-245.2-557.7-265-779.2-320.4c-257.1-61.3-526-67.2-891.9-19.8c-448.9,57.3-713.9,69.2-998.7,43.5c-510.2-45.5-818.7-166.1-1069.9-415.3C300,3560.3,219,3414,155.7,3166.8C35,2690.2,106.2,2150.3,410.8,1211C576.9,698.8,616.4,510.9,616.4,208.4c-2-290.7-31.6-433.1-213.6-988.8c-168.1-512.2-235.3-769.3-267-1042.2c-41.5-338.2,9.9-670.4,144.4-925.5c77.1-146.3,334.2-409.4,494.4-502.3c288.7-168.1,731.7-284.8,1220.2-318.4c300.6-19.8,1087.7-27.7,1087.7-9.9c0,25.7-140.4,284.8-195.8,359.9c-33.6,45.5-152.3,160.2-263,251.2c-112.7,92.9-241.3,211.6-286.7,265c-476.6,559.7-694.1,1295.3-674.3,2297.9l5.9,367.8l65.3,130.5c106.8,215.6,383.7,425.2,611.1,462.8l83.1,11.9l5.9,646.7l5.9,644.7l61.3,128.5c108.8,225.4,282.8,381.7,524.1,470.7c330.2,122.6,733.7,43.5,961.1-189.8l83.1-85l302.6,29.7c978.9,94.9,1605.8,27.7,2121.9-229.4c634.8-314.4,953.2-907.7,1089.6-2032.9c73.2-595.2,39.6-1592-71.2-2096.2c-57.4-267-106.8-369.8-288.7-613c-233.4-308.5-324.3-524.1-324.3-765.3v-65.3h164.1c452.9,2,759.4,65.3,957.2,195.8c259.1,174,350,373.8,480.5,1058c193.8,1002.6,367.8,1410,838.5,1957.8c195.8,227.4,251.1,308.5,357.9,530c219.5,456.8,263,1018.4,118.7,1558.3c-102.8,381.7-265,670.4-524.1,931.5c-241.3,243.2-407.4,330.2-769.3,405.4c-688.2,142.4-1058,391.6-1495,1006.6c-102.8,144.4-229.4,300.6-280.8,344.1C6404.8,4691.5,5746.3,4833.9,5109.5,4754.8z"
       id="path3602"
       style="fill:#ffffff;fill-opacity:1" /><path
       d="M3377.1,1887.3c-183.9-27.7-359.9-162.2-441-334.2c-39.6-83.1-41.5-130.5-51.4-749.5l-9.9-660.5l-138.4-27.7c-263-53.4-456.8-189.8-502.3-356c-45.5-162.1-15.8-731.7,57.3-1087.7c118.7-575.5,348.1-963.1,773.2-1303.2c166.1-132.5,280.8-261,365.8-417.3c148.3-263,235.3-591.3,261-980.9l13.8-199.7l106.8-63.3c162.2-96.9,492.4-199.7,759.4-235.3c579.4-75.1,1152.9,0,1562.3,205.7l181.9,91l11.9,533.9c7.9,350,19.8,561.6,35.6,613c49.4,150.3,156.2,336.2,308.5,533.9c237.3,308.5,276.9,405.4,340.1,838.5c45.5,320.4,45.5,1103.5-2,1445.6c-94.9,704-288.7,1230.1-561.6,1526.7c-176,189.8-399.5,290.7-814.8,363.9c-168.1,29.7-304.6,37.6-721.8,37.6c-300.6,0-599.2-11.9-717.9-25.7l-203.7-25.7l-79.1,89C3778.6,1849.8,3580.8,1919,3377.1,1887.3z"
       id="path3604"
       style="fill:#ed6b21;fill-opacity:1" /></g></g>
</svg>
