<?xml version="1.0" encoding="UTF-8" standalone="no"?>
<svg
   xmlns:dc="http://purl.org/dc/elements/1.1/"
   xmlns:cc="http://creativecommons.org/ns#"
   xmlns:rdf="http://www.w3.org/1999/02/22-rdf-syntax-ns#"
   xmlns:svg="http://www.w3.org/2000/svg"
   xmlns="http://www.w3.org/2000/svg"
   xmlns:sodipodi="http://sodipodi.sourceforge.net/DTD/sodipodi-0.dtd"
   xmlns:inkscape="http://www.inkscape.org/namespaces/inkscape"
   version="1.0"
   id="Layer_1"
   x="0px"
   y="0px"
   viewBox="0 0 16 16"
   enable-background="new 0 0 16 16"
   xml:space="preserve"
   sodipodi:docname="make_unbold.svg"
   inkscape:version="1.0.2 (e86c870879, 2021-01-15, custom)"><metadata
   id="metadata12"><rdf:RDF><cc:Work
       rdf:about=""><dc:format>image/svg+xml</dc:format><dc:type
         rdf:resource="http://purl.org/dc/dcmitype/StillImage" /><dc:title></dc:title></cc:Work></rdf:RDF></metadata><defs
   id="defs10" /><sodipodi:namedview
   pagecolor="#ffffff"
   bordercolor="#666666"
   borderopacity="1"
   objecttolerance="10"
   gridtolerance="10"
   guidetolerance="10"
   inkscape:pageopacity="0"
   inkscape:pageshadow="2"
   inkscape:window-width="1536"
   inkscape:window-height="801"
   id="namedview8"
   showgrid="false"
   inkscape:zoom="21.831922"
   inkscape:cx="2.9625479"
   inkscape:cy="9.2332946"
   inkscape:window-x="-8"
   inkscape:window-y="121"
   inkscape:window-maximized="1"
   inkscape:current-layer="Layer_1" />

<g
   id="g919"><path
     id="path905"
     style="font-size:19.6818px;line-height:1.25;font-family:sans-serif;letter-spacing:0px;word-spacing:0px;fill:#808080;fill-opacity:1;stroke-width:1"
     sodipodi:type="inkscape:offset"
     inkscape:radius="0.45459658"
     inkscape:original="M 2.6035156 0.84570312 L 2.6035156 15.154297 L 7.6777344 15.154297 C 8.670794 15.154297 9.4882228 15.06611 10.128906 14.886719 C 10.775997 14.707327 11.368076 14.405273 11.90625 13.982422 C 12.361135 13.630046 12.7231 13.1813 12.992188 12.636719 C 13.261275 12.092137 13.396484 11.465065 13.396484 10.753906 C 13.396484 9.7608469 13.117942 8.9400592 12.560547 8.2929688 C 12.003152 7.6394714 11.24087 7.2142369 10.273438 7.015625 L 10.273438 6.9375 C 10.850053 6.6491924 11.310281 6.2690278 11.65625 5.7949219 C 12.002219 5.3144092 12.175781 4.7338122 12.175781 4.0546875 C 12.175781 3.4524449 12.057366 2.9370705 11.820312 2.5078125 C 11.58326 2.0721476 11.201142 1.7169002 10.675781 1.4414062 C 10.201675 1.1979465 9.7064537 1.0378196 9.1875 0.9609375 C 8.6685463 0.88405547 7.8861111 0.84570312 6.8417969 0.84570312 L 2.6035156 0.84570312 z M 4.5058594 2.46875 L 6.7753906 2.46875 C 7.4096674 2.46875 7.9398826 2.4922615 8.3691406 2.5371094 C 8.7983987 2.5755504 9.1637225 2.6805311 9.4648438 2.8535156 C 9.7211172 3.0008729 9.9081142 3.1926346 10.023438 3.4296875 C 10.13876 3.6667404 10.195312 3.9587184 10.195312 4.3046875 C 10.195312 4.7211321 10.132043 5.0830969 10.003906 5.390625 C 9.8821764 5.6917463 9.6702619 5.9386543 9.3691406 6.1308594 C 9.0680193 6.3230648 8.7410479 6.451557 8.3886719 6.515625 C 8.0362959 6.5732863 7.5626326 6.6015625 6.9667969 6.6015625 L 4.5058594 6.6015625 L 4.5058594 2.46875 z M 4.5058594 8.2070312 L 7.4960938 8.2070312 C 8.1239637 8.2070313 8.6541789 8.2319485 9.0898438 8.2832031 C 9.5319154 8.328051 9.9073154 8.431626 10.214844 8.5917969 C 10.669729 8.8288499 10.983265 9.1155159 11.15625 9.4550781 C 11.329234 9.7946405 11.416016 10.253463 11.416016 10.830078 C 11.416016 11.336218 11.332593 11.74997 11.166016 12.070312 C 10.999438 12.390654 10.737689 12.675915 10.378906 12.925781 C 10.039344 13.156427 9.604033 13.316555 9.0722656 13.40625 C 8.5404982 13.489539 7.8582794 13.53125 7.0253906 13.53125 L 4.5058594 13.53125 L 4.5058594 8.2070312 z "
     d="M 2.6035156,0.390625 A 0.45464204,0.45464204 0 0 0 2.1484375,0.84570312 V 15.154297 a 0.45464204,0.45464204 0 0 0 0.4550781,0.455078 h 5.0742188 c 1.0192082,0 1.8724488,-0.08943 2.5722656,-0.285156 0.704041,-0.19518 1.353249,-0.525333 1.935547,-0.982422 l 0.002,-0.002 c 0.509285,-0.395061 0.916438,-0.901991 1.212891,-1.501953 0.303691,-0.614615 0.451172,-1.315206 0.451171,-2.083985 0,-1.0770667 -0.313909,-2.0217764 -0.945312,-2.7558591 l -0.002,-0.00195 C 12.461534,7.4777218 11.86388,7.1351112 11.203125,6.875 11.514504,6.637151 11.796619,6.3733249 12.023438,6.0625 a 0.45464204,0.45464204 0 0 0 0.002,-0.00195 c 0.405303,-0.5629213 0.605468,-1.2492814 0.605468,-2.0058594 0,-0.6618322 -0.131587,-1.259609 -0.412109,-1.7675781 v 0.00391 C 11.93326,1.7663287 11.474136,1.347098 10.886719,1.0390625 a 0.45464204,0.45464204 0 0 0 -0.0039,-0.00195 C 10.366329,0.77188829 9.821904,0.59586664 9.2539062,0.51171875 8.6911072,0.42834112 7.8972411,0.390625 6.8417969,0.390625 Z m 2.3574219,2.5332031 h 1.8144531 c 0.6230428,0 1.1397643,0.021919 1.546875,0.064453 a 0.45464204,0.45464204 0 0 0 0.00586,0.00195 c 0.3788452,0.033926 0.6778569,0.124364 0.9101562,0.2578125 0.1913715,0.1100386 0.3040086,0.2309187 0.3769532,0.3808593 0.076659,0.1575785 0.125,0.379351 0.125,0.6757813 0,0.3704011 -0.056389,0.670489 -0.15625,0.9101563 a 0.45464204,0.45464204 0 0 0 -0.00195,0.00586 C 9.4966472,5.4319168 9.3588253,5.5987966 9.125,5.7480469 8.8745265,5.9079238 8.6070974,6.0121766 8.3144531,6.0664062 c -9.002e-4,1.474e-4 -0.003,-1.469e-4 -0.00391,0 -0.3116061,0.050728 -0.7639761,0.080078 -1.34375,0.080078 H 4.9609375 Z m 0,5.7382813 h 2.5351563 c 0.6158427,10e-8 1.1308781,0.024014 1.5410156,0.072266 a 0.45464204,0.45464204 0 0 0 0.00781,0.00195 c 0.3978583,0.040363 0.7146715,0.1305664 0.9589841,0.2578125 0.397607,0.2072036 0.628939,0.4341652 0.748047,0.6679688 0.125714,0.2467732 0.208984,0.6369656 0.208985,1.1679686 0,0.456188 -0.0779,0.797942 -0.199219,1.03125 -0.126867,0.243974 -0.330997,0.472211 -0.638672,0.6875 -0.2710781,0.184129 -0.6425631,0.3265 -1.1269532,0.408203 -0.4954847,0.07724 -1.1554071,0.119141 -1.9707032,0.119141 H 4.9609375 Z" /><path
     id="path902"
     style="font-size:19.6818px;line-height:1.25;font-family:sans-serif;letter-spacing:0px;word-spacing:0px;fill:#ed6b21;fill-opacity:1;stroke-width:1"
     sodipodi:type="inkscape:offset"
     inkscape:radius="-0.27482691"
     inkscape:original="M 2.6035156 0.84570312 L 2.6035156 15.154297 L 7.6777344 15.154297 C 8.670794 15.154297 9.4882228 15.06611 10.128906 14.886719 C 10.775997 14.707327 11.368076 14.405273 11.90625 13.982422 C 12.361135 13.630046 12.7231 13.1813 12.992188 12.636719 C 13.261275 12.092137 13.396484 11.465065 13.396484 10.753906 C 13.396484 9.7608469 13.117942 8.9400592 12.560547 8.2929688 C 12.003152 7.6394714 11.24087 7.2142369 10.273438 7.015625 L 10.273438 6.9375 C 10.850053 6.6491924 11.310281 6.2690278 11.65625 5.7949219 C 12.002219 5.3144092 12.175781 4.7338122 12.175781 4.0546875 C 12.175781 3.4524449 12.057366 2.9370705 11.820312 2.5078125 C 11.58326 2.0721476 11.201142 1.7169002 10.675781 1.4414062 C 10.201675 1.1979465 9.7064537 1.0378196 9.1875 0.9609375 C 8.6685463 0.88405547 7.8861111 0.84570312 6.8417969 0.84570312 L 2.6035156 0.84570312 z M 4.5058594 2.46875 L 6.7753906 2.46875 C 7.4096674 2.46875 7.9398826 2.4922615 8.3691406 2.5371094 C 8.7983987 2.5755504 9.1637225 2.6805311 9.4648438 2.8535156 C 9.7211172 3.0008729 9.9081142 3.1926346 10.023438 3.4296875 C 10.13876 3.6667404 10.195312 3.9587184 10.195312 4.3046875 C 10.195312 4.7211321 10.132043 5.0830969 10.003906 5.390625 C 9.8821764 5.6917463 9.6702619 5.9386543 9.3691406 6.1308594 C 9.0680193 6.3230648 8.7410479 6.451557 8.3886719 6.515625 C 8.0362959 6.5732863 7.5626326 6.6015625 6.9667969 6.6015625 L 4.5058594 6.6015625 L 4.5058594 2.46875 z M 4.5058594 8.2070312 L 7.4960938 8.2070312 C 8.1239637 8.2070313 8.6541789 8.2319485 9.0898438 8.2832031 C 9.5319154 8.328051 9.9073154 8.431626 10.214844 8.5917969 C 10.669729 8.8288499 10.983265 9.1155159 11.15625 9.4550781 C 11.329234 9.7946405 11.416016 10.253463 11.416016 10.830078 C 11.416016 11.336218 11.332593 11.74997 11.166016 12.070312 C 10.999438 12.390654 10.737689 12.675915 10.378906 12.925781 C 10.039344 13.156427 9.604033 13.316555 9.0722656 13.40625 C 8.5404982 13.489539 7.8582794 13.53125 7.0253906 13.53125 L 4.5058594 13.53125 L 4.5058594 8.2070312 z "
     d="M 2.8789062,1.1210938 V 14.878906 h 4.7988282 c 0.9767892,0 1.7721974,-0.08653 2.3769536,-0.255859 a 0.2748544,0.2748544 0 0 1 0,-0.002 c 0.612147,-0.169705 1.17047,-0.453836 1.68164,-0.855469 a 0.2748544,0.2748544 0 0 1 0.002,0 c 0.421383,-0.326424 0.755523,-0.739416 1.007813,-1.25 0.248167,-0.502244 0.375,-1.085394 0.375,-1.761719 0,-0.9416683 -0.257589,-1.686926 -0.769532,-2.2812498 a 0.2748544,0.2748544 0 0 1 0,-0.00195 C 11.836252,7.8665458 11.138343,7.4739468 10.21875,7.2851562 A 0.2748544,0.2748544 0 0 1 9.9980469,7.015625 V 6.9375 A 0.2748544,0.2748544 0 0 1 10.150391,6.6914062 C 10.692415,6.420394 11.114897,6.0710997 11.433594,5.6347656 v -0.00195 c 0.309421,-0.4304071 0.466797,-0.9465219 0.466797,-1.578125 0,-0.5662177 -0.109537,-1.0323894 -0.320313,-1.4140625 a 0.2748544,0.2748544 0 0 1 -0.002,-0.00195 C 11.370578,2.2572318 11.037782,1.941225 10.550781,1.6855469 h -0.002 C 10.100864,1.4557345 9.6351721,1.3048201 9.1464844,1.2324219 8.6540374,1.1594668 7.8793824,1.1210938 6.8417969,1.1210938 Z m 1.6269532,1.0722656 h 2.2695312 c 0.6395284,0 1.177097,0.024285 1.6191406,0.070312 0.4597353,0.04117 0.8643036,0.1546764 1.2070313,0.3515625 0.2955099,0.1699183 0.5289775,0.4036426 0.6699215,0.6933594 0.138696,0.2850992 0.199219,0.6201759 0.199219,0.9960937 0,0.4442803 -0.06766,0.8428528 -0.212891,1.1914063 C 10.113991,5.8508703 9.8588815,6.145428 9.5175781,6.3632812 9.1872264,6.5741444 8.8240657,6.714872 8.4375,6.7851562 a 0.2748544,0.2748544 0 0 1 -0.00391,0.00195 C 8.0566143,6.8487967 7.5713274,6.8769531 6.9667969,6.8769531 H 4.5058594 A 0.2748544,0.2748544 0 0 1 4.2304688,6.6015625 V 2.46875 A 0.2748544,0.2748544 0 0 1 4.5058594,2.1933594 Z m 0,5.7382812 h 2.9902344 c 0.6351409,1e-7 1.1739024,0.025055 1.625,0.078125 0.4670616,0.047792 0.8759822,0.1583488 1.2207032,0.3378906 0.489513,0.2550985 0.853037,0.5789232 1.058594,0.9824219 0.201561,0.3956582 0.291015,0.8958099 0.291015,1.4999999 0,0.536338 -0.08731,0.994229 -0.28125,1.367188 -0.190134,0.365642 -0.487159,0.683022 -0.875,0.953125 a 0.2748544,0.2748544 0 0 1 -0.002,0.002 c -0.380964,0.258768 -0.8556061,0.430864 -1.4160155,0.52539 a 0.2748544,0.2748544 0 0 1 -0.00195,0 C 8.5618237,13.764413 7.867455,13.806641 7.0253906,13.806641 H 4.5058594 A 0.2748544,0.2748544 0 0 1 4.2304688,13.53125 V 8.2070312 A 0.2748544,0.2748544 0 0 1 4.5058594,7.9316406 Z" /></g></svg>
