<svg xmlns="http://www.w3.org/2000/svg" viewBox="0 0 16 16" width="16px" height="16px">
<path fill="#808080" d="M 1.5,3 C 0.47,3 0,3.5 0,4.5 v 10 C 0,15.36 0.63,16 1.5,16 h 10 c 0.86,0 1.5,-0.63 1.5,-1.5 V 13 h -1 v 1.5 C 12,14.8 11.79,15 11.5,15 H 1.5 C 1.17,15 1,14.7 1,14.5 L 1,4.5 C 1,4.18 1.2,4 1.5,4 H 8 C 8.35,4 8.5,3.78 8.5,3.5 8.5,3.2 8.3,3 8,3 Z M 5,7 4,8 v 1 l 1,1 h 1 v 1 H 4 v 1 H 6 L 7,11 V 10 L 6,9 H 5 V 8 H 7 V 7 Z m 3,0 v 4 H 9 V 7 Z m 1,4 v 1 h 1 v -1 z m 1,0 h 1 V 7 H 10 Z M 13.5,7 C 12.5,7 12,7.6 12,8.5 V 10.5 C 12,11.4 12.7,12 13.5,12 h 1.5 v -2 h -1 v 1 H 13.5 C 13.3,11 13,10.8 13,10.5 V 8.5 C 13,8 13.2,8 13.5,8 h 0 1.5 V 7 Z M 2,11 v 1 h 1 v -1 z" />
<path fill="#ed6b21" d="m 12.5,1 a 2.5,2.5 0 0 0 -2.5,2.5 2.5,2.5 0 0 0 2.5,2.5 2.5,2.5 0 0 0 2.5,-2.5 2.5,2.5 0 0 0 -2.5,-2.5 z m 0.144531,1 a 1.5,1.5 0 0 1 1.355469,1.355469 z m -0.632812,0 1.90625,2 a 1.5,1.5 0 0 1 -0.628906,0.773438 l -2,-2 a 1.5,1.5 0 0 1 0.7,-0.7 z m -1,1.2 1.78,1.78 a 1.5,1.5 0 0 1 -0.28125,0 1.5,1.5 0 0 1 -1.5,-1.5 1.5,1.5 0 0 1 0,-0.28125 z" />
</svg>
