<svg xmlns="http://www.w3.org/2000/svg" viewBox="0 0 16 16" width="16px" height="16px">
<path fill="#808080" d="m 6,14 h 7.5 C 14.5,14 15,13.5 15,12.5 V 11 h -1 v 1.5 C 14,12.8 13.79,13 13.5,13 H 6 Z M 3,8 V 2.5 C 3,2.18 3.2,2 3.5,2 h 10 C 13.8,2 14,2.2 14,2.5 V 4 h 1 V 2.5 C 15,1.5 14.5,1 13.5,1 H 3.5 C 2.47,1 2,1.5 2,2.5 V 8 Z M 5,5 4,6 V 7 L 5,8 H 6 V 9 H 4 v 1 H 6 L 7,9 V 8 L 6,7 H 5 V 6 H 7 V 5 Z M 8,5 V 9 H 9 V 5 Z m 1,4 v 1 h 1 V 9 Z m 1,0 h 1 V 5 H 10 Z M 13.5,5 C 12.5,5 12,5.6 12,6.5 v 2 c 0,0.9 0.7,1.5 1.5,1.5 H 15 V 8 H 14 V 9 H 13.5 C 13.3,9 13,8.8 13,8.5 v -2 C 13,6 13.5,6 13.5,6 V 6 H 15 V 5 Z M 2,9 v 1 H 3 V 9 Z"/>
<path fill="#ed6b21" d="M 2.5,11 C 2,11 2,11.5 2,12 v 1 H 1 C 0.5,13 0,13 0,13.5 0,14 0.5,14 1,14 h 1 v 1 c 0,0.5 0,1 0.5,1 C 3,16 3,15.5 3,15 V 14 H 4 C 4.5,14 5,14 5,13.5 5,13 4.5,13 4,13 H 3 V 12 C 3,11.5 3,11 2.5,11 Z" />
</svg>